# xmcd
#
# Track frame offsets:
#	150
#	18434
#	29036
#	42543
#	58389
#	76581
#	85102
#	96807
#	109538
#	121586
#
# Disc length: 1768 seconds
#
# Revision: 2
# Processed by: cddbd v1.5.2PL0 Copyright (c) Steve Scherf et al.
# Submitted via: audiograbber 1.83.01
#
DISCID=7506e60a
DTITLE=C.W. MCcall - C.W. MCcall and Company
DYEAR=1979
DGENRE=Country
TTITLE0=City Of New Orleans
TTITLE1=Flowers On The Wall
TTITLE2=Hobos Lullaby
TTITLE3=I Wish There Was More That I Could Give
TTITLE4=Milton
TTITLE5=Outlaws And Lone Star Beer
TTITLE6=Sivler Cloud Breakdown
TTITLE7=The Cowboy
TTITLE8=The Little Things In Life
TTITLE9=Wheels Of Fortune
EXTD=
EXTT0=
EXTT1=
EXTT2=
EXTT3=
EXTT4=
EXTT5=
EXTT6=
EXTT7=
EXTT8=
EXTT9=
PLAYORDER=
